<svg width="25" height="25" viewBox="0 0 25 25" fill="none" xmlns="http://www.w3.org/2000/svg">
<path d="M9.16093 5.47994C9.76244 3.71968 12.1946 3.66637 12.9078 5.32001L12.9681 5.48095L13.7799 7.85479C13.9659 8.3992 14.2665 8.89738 14.6614 9.31573C15.0564 9.73408 15.5364 10.0629 16.0692 10.2799L16.2875 10.3614L18.6613 11.1721C20.4216 11.7736 20.4749 14.2058 18.8223 14.919L18.6613 14.9793L16.2875 15.7911C15.7429 15.977 15.2445 16.2775 14.826 16.6725C14.4074 17.0674 14.0785 17.5475 13.8613 18.0804L13.7799 18.2977L12.9691 20.6725C12.3676 22.4328 9.93544 22.4861 9.22329 20.8335L9.16093 20.6725L8.3502 18.2987C8.1643 17.7541 7.86374 17.2557 7.4688 16.8372C7.07387 16.4186 6.59375 16.0897 6.06085 15.8725L5.84359 15.7911L3.46974 14.9803C1.70847 14.3788 1.65516 11.9466 3.3088 11.2345L3.46974 11.1721L5.84359 10.3614C6.38799 10.1754 6.88618 9.87476 7.30453 9.47983C7.72288 9.08491 8.05167 8.60485 8.26873 8.07206L8.3502 7.85479L9.16093 5.47994ZM19.112 2.01172C19.3001 2.01172 19.4845 2.0645 19.6442 2.16408C19.8039 2.26365 19.9324 2.40602 20.0152 2.575L20.0635 2.69269L20.4156 3.72471L21.4486 4.07676C21.6372 4.14083 21.8025 4.25944 21.9236 4.41756C22.0447 4.57568 22.1161 4.7662 22.1288 4.96496C22.1415 5.16372 22.095 5.36178 21.995 5.53404C21.895 5.70631 21.7462 5.84501 21.5673 5.93258L21.4486 5.98086L20.4166 6.33292L20.0645 7.36594C20.0003 7.55447 19.8816 7.7197 19.7234 7.8407C19.5653 7.9617 19.3747 8.03302 19.176 8.04562C18.9772 8.05823 18.7792 8.01155 18.607 7.9115C18.4348 7.81145 18.2962 7.66254 18.2087 7.48362L18.1604 7.36594L17.8084 6.33392L16.7753 5.98187C16.5867 5.9178 16.4214 5.79919 16.3003 5.64107C16.1792 5.48294 16.1078 5.29243 16.0951 5.09367C16.0824 4.89491 16.129 4.69684 16.2289 4.52458C16.3289 4.35232 16.4778 4.21362 16.6566 4.12605L16.7753 4.07777L17.8073 3.72571L18.1594 2.69269C18.2272 2.49396 18.3555 2.32143 18.5264 2.19931C18.6972 2.07719 18.902 2.01159 19.112 2.01172Z" fill="#757DFF"/>
</svg>
